<svg xmlns="http://www.w3.org/2000/svg" viewBox="1694.381 2410.046 26.644 16.743">
  <defs>
    <style>
      .cls-1 {
        fill: #F8C7CC;
      }
    </style>
  </defs>
  <g id="Behance_1_" transform="translate(1694.381 2410.046)">
    <path id="Path_19" data-name="Path 19" class="cls-1" d="M10.992,14.571a3.464,3.464,0,0,0,1.238-.946,3.513,3.513,0,0,0,.728-2.4,3.987,3.987,0,0,0-.728-2.475A5.382,5.382,0,0,0,7.935,7H0V23.234H7.425a11.519,11.519,0,0,0,2.33-.218,5.506,5.506,0,0,0,1.893-.8,5.023,5.023,0,0,0,1.165-1.31,4.435,4.435,0,0,0,.728-2.621,4.234,4.234,0,0,0-.655-2.4A4.626,4.626,0,0,0,10.992,14.571ZM3.276,9.839H6.843a7.326,7.326,0,0,1,1.966.218,1.441,1.441,0,0,1,.874,1.529,1.647,1.647,0,0,1-.655,1.456,3.1,3.1,0,0,1-1.747.437h-4ZM8.954,20.176a3.453,3.453,0,0,1-1.674.291h-4V16.1H7.353a3.639,3.639,0,0,1,1.674.291,1.649,1.649,0,0,1,1.019,1.747A2.043,2.043,0,0,1,8.954,20.176Z" transform="translate(0 -7)"/>
    <rect id="Rectangle_3" data-name="Rectangle 3" class="cls-1" width="7.061" height="2.038" transform="translate(17.035 0.801)"/>
    <path id="Path_20" data-name="Path 20" class="cls-1" d="M30.992,14.83a4.891,4.891,0,0,0-2.111-1.747,7.327,7.327,0,0,0-2.839-.582,6.044,6.044,0,0,0-4.368,1.674A6.525,6.525,0,0,0,20,18.979c0,2.257.582,3.858,1.893,4.8a6.539,6.539,0,0,0,4.3,1.456,5.98,5.98,0,0,0,4.586-1.747,3.612,3.612,0,0,0,1.165-2.184H28.663a2.568,2.568,0,0,1-.655.8,2.656,2.656,0,0,1-1.747.582,3.458,3.458,0,0,1-1.747-.437,2.958,2.958,0,0,1-1.31-2.548h8.881a22,22,0,0,0-.073-2.4A5.415,5.415,0,0,0,30.992,14.83ZM23.276,17.6a3.281,3.281,0,0,1,.874-1.893,2.6,2.6,0,0,1,1.893-.655,2.851,2.851,0,0,1,1.893.655,2.734,2.734,0,0,1,.874,1.893Z" transform="translate(-5.441 -8.496)"/>
  </g>
</svg>
