<svg xmlns="http://www.w3.org/2000/svg" viewBox="1848.136 2405.799 21.724 26.213">
  <defs>
    <style>
      .cls-1 {
        fill: #F8C7CC
      }
    </style>
  </defs>
  <path id="Path_18" data-name="Path 18" class="cls-1" d="M168.4,17.4a2.165,2.165,0,0,1,2.111.582,11.343,11.343,0,0,1,1.165,1.456,4.019,4.019,0,0,0,4.368,1.674,1.419,1.419,0,0,0,.728-.728,16.7,16.7,0,0,0,.655-2.038,19.516,19.516,0,0,1-1.966-.51,6.24,6.24,0,0,1-4.732-6.188c-.073-2.184-.146-4.513,1.529-6.333.146-.146.073-.582,0-.874A5.253,5.253,0,0,1,172.622.8c1.529.218,2.4,1.31,3.349,2.475a13.315,13.315,0,0,1,8.736-.073c.946-.728,1.82-1.456,2.766-2.184.582-.437,1.019-.218,1.092.51.073,1.019,0,1.966,0,2.985,0,.291-.073.655.073.874,1.6,1.82,1.529,4.077,1.456,6.261-.146,3.858-2.329,5.824-6.552,6.625.146,1.456.364,2.839.437,4.3s0,2.912,0,4.441h-6.916V23.729h-2.111a4.408,4.408,0,0,1-3.713-2.184C170.147,20.089,169.274,18.779,168.4,17.4Z" transform="translate(1679.736 2405.006)"/>
</svg>
