<svg xmlns="http://www.w3.org/2000/svg" viewBox="1771.259 2404.95 26.717 26.644">
  <defs>
    <style>
      .cls-1 {
        fill: #F8C7CC
      }
    </style>
  </defs>
  <path id="Instagram_1_" class="cls-1" d="M107.713,0H87.4a3.169,3.169,0,0,0-3.2,3.13V23.513a3.169,3.169,0,0,0,3.2,3.13h20.31a3.169,3.169,0,0,0,3.2-3.13V3.13A3.169,3.169,0,0,0,107.713,0Zm-4.368,4.149a.808.808,0,0,1,.8-.8h2.475a.808.808,0,0,1,.8.8V6.625a.808.808,0,0,1-.8.8h-2.475a.808.808,0,0,1-.8-.8ZM97.595,8.226a5.1,5.1,0,1,1,0,10.192,5.1,5.1,0,1,1,0-10.192Zm10.774,15.142a.808.808,0,0,1-.8.8H87.549a.808.808,0,0,1-.8-.8V10.847H90.1a5.234,5.234,0,0,0-.582,2.548,8.154,8.154,0,0,0,16.307,0,4.07,4.07,0,0,0-.655-2.548h3.349V23.368Z" transform="translate(1687.059 2404.95)"/>
</svg>
